<?xml version="1.0" encoding="UTF-8" standalone="no"?>
<!DOCTYPE svg PUBLIC "-//W3C//DTD SVG 1.1//EN" "http://www.w3.org/Graphics/SVG/1.1/DTD/svg11.dtd">
<!-- Generated by Microsoft Visio, SVG Export Layers.svg Page-2 -->
<svg xmlns="http://www.w3.org/2000/svg" xmlns:xlink="http://www.w3.org/1999/xlink" xmlns:ev="http://www.w3.org/2001/xml-events"
		width="8.26772in" height="11.6929in" viewBox="0 0 595.276 841.89" xml:space="preserve" color-interpolation-filters="sRGB"
		class="st11">
	<style type="text/css">
	<![CDATA[
		.st1 {visibility:visible}
		.st2 {fill:#5b9bd5;fill-opacity:0.22;filter:url(#filter_2);stroke:#5b9bd5;stroke-opacity:0.22}
		.st3 {fill:#556a8a;stroke:#aab5c5;stroke-width:1.5}
		.st4 {fill:#766291;stroke:#aab5c5;stroke-width:1.5}
		.st5 {fill:#5b9bd5;fill-opacity:0.22;filter:url(#filter_2);stroke:none}
		.st6 {fill:#ffffff;stroke:none;stroke-width:0.75}
		.st7 {fill:#d4dae2;stroke:none;stroke-width:0.75}
		.st8 {fill:#aab5c5;stroke:none;stroke-width:0.75}
		.st9 {fill:none;filter:url(#filter_2);stroke:#5b9bd5;stroke-opacity:0.22}
		.st10 {fill:none;stroke:#aab5c5;stroke-width:1.5}
		.st11 {fill:none;fill-rule:evenodd;font-size:12px;overflow:visible;stroke-linecap:square;stroke-miterlimit:3}
	]]>
	</style>

	<defs id="Filters">
		<filter id="filter_2">
			<feGaussianBlur stdDeviation="2"/>
		</filter>
	</defs>
	<g>
		<title>Page-2</title>
		<g id="group9-1" transform="translate(121.788,-465.951)">
			<title>MVC</title>
			<g id="shape10-2" transform="translate(1.31575,40.754)">
				<title>polygon2281</title>
				<g id="shadow10-3" transform="matrix(1,0,0,1,0.3456,1.9728)" class="st1">
					<path d="M112.07 767.17 L224.14 804.53 L112.07 841.89 L0 804.53 L112.07 767.17 Z" class="st2"/>
				</g>
				<path d="M112.07 767.17 L224.14 804.53 L112.07 841.89 L0 804.53 L112.07 767.17 Z" class="st3"/>
			</g>
			<g id="shape11-7" transform="translate(-1.31575,-8.8523)">
				<title>polygon2283</title>
				<g id="shadow11-8" transform="matrix(1,0,0,1,0.3456,1.9728)" class="st1">
					<path d="M112.07 767.17 L224.14 804.53 L112.07 841.89 L0 804.53 L112.07 767.17 Z" class="st2"/>
				</g>
				<path d="M112.07 767.17 L224.14 804.53 L112.07 841.89 L0 804.53 L112.07 767.17 Z" class="st4"/>
			</g>
			<g id="shape12-12" transform="translate(0,-56.3733)">
				<title>path2285</title>
				<g id="shadow12-13" transform="matrix(1,0,0,1,0.3456,1.9728)" class="st1">
					<path d="M224.14 804.53 C186.71 816.69 149.36 829.24 112.07 841.89 C75.01 828.65 37.49 816.5 0 804.53 C37.4 792.21
								 74.68 779.55 112.07 767.17 C149.38 779.76 186.84 791.9 224.14 804.53 Z" class="st5"/>
				</g>
				<path d="M224.14 804.53 C186.71 816.69 149.36 829.24 112.07 841.89 C75.01 828.65 37.49 816.5 0 804.53 C37.4 792.21
							 74.68 779.55 112.07 767.17 C149.38 779.76 186.84 791.9 224.14 804.53 Z" class="st6"/>
			</g>
			<g id="shape13-17" transform="translate(24.342,-79.2383)">
				<title>path2287</title>
				<g id="shadow13-18" transform="matrix(1,0,0,1,0.3456,1.9728)" class="st1">
					<path d="M130.61 807.94 C97.81 819.22 65.03 830.53 32.27 841.89 C21.52 838.33 10.76 834.8 0 831.29 C33.16 820.12
								 66.27 808.84 99.43 797.68 L130.61 807.94 Z" class="st5"/>
				</g>
				<path d="M130.61 807.94 C97.81 819.22 65.03 830.53 32.27 841.89 C21.52 838.33 10.76 834.8 0 831.29 C33.16 820.12
							 66.27 808.84 99.43 797.68 L130.61 807.94 Z" class="st7"/>
			</g>
			<g id="shape14-22" transform="translate(60.6351,-67.1068)">
				<title>path2289</title>
				<g id="shadow14-23" transform="matrix(1,0,0,1,0.3456,1.9728)" class="st1">
					<path d="M64.82 830.55 C54.01 834.31 43.21 838.09 32.41 841.89 C21.61 838.27 10.81 834.67 0 831.1 L32.22 819.93
								 C43.09 823.45 53.96 826.99 64.82 830.55 Z" class="st5"/>
				</g>
				<path d="M64.82 830.55 C54.01 834.31 43.21 838.09 32.41 841.89 C21.61 838.27 10.81 834.67 0 831.1 L32.22 819.93 C43.09
							 823.45 53.96 826.99 64.82 830.55 Z" class="st8"/>
			</g>
			<g id="shape15-27" transform="translate(164.745,-82.553)">
				<title>path2291</title>
				<g id="shadow15-28" transform="matrix(1,0,0,1,0.3456,1.9728)" class="st1">
					<path d="M52.57 831.83 C42.48 835.16 32.4 838.51 22.32 841.89 L0 834.67 L29.86 824.34 C41.38 828.11 46.49 829.8
								 52.57 831.83 Z" class="st5"/>
				</g>
				<path d="M52.57 831.83 C42.48 835.16 32.4 838.51 22.32 841.89 L0 834.67 L29.86 824.34 C41.38 828.11 46.49 829.8 52.57
							 831.83 Z" class="st8"/>
			</g>
			<g id="shape16-32" transform="translate(95.3272,-79.3172)">
				<title>path2293</title>
				<g id="shadow16-33" transform="matrix(1,0,0,1,0.3456,1.9728)" class="st1">
					<path d="M95.89 819.96 C74.79 827.26 53.7 834.57 32.62 841.89 C21.75 838.33 10.88 834.79 0 831.27 C21.18 823.94
								 42.37 816.62 63.57 809.32 L95.89 819.96 Z" class="st5"/>
				</g>
				<path d="M95.89 819.96 C74.79 827.26 53.7 834.57 32.62 841.89 C21.75 838.33 10.88 834.79 0 831.27 C21.18 823.94 42.37
							 816.62 63.57 809.32 L95.89 819.96 Z" class="st7"/>
			</g>
			<g id="shape17-37" transform="translate(94.712,-58.5125)">
				<title>path2295</title>
				<g id="shadow17-38" transform="matrix(1,0,0,1,0.3456,1.9728)" class="st1">
					<path d="M88.22 819.09 C65.67 826.61 43.15 834.21 20.66 841.89 C15.89 840.2 11.12 838.59 0 834.84 C21.96 827.12
								 43.94 819.45 65.95 811.83 L88.22 819.09 Z" class="st5"/>
				</g>
				<path d="M88.22 819.09 C65.67 826.61 43.15 834.21 20.66 841.89 C15.89 840.2 11.12 838.59 0 834.84 C21.96 827.12 43.94
							 819.45 65.95 811.83 L88.22 819.09 Z" class="st7"/>
			</g>
			<g id="shape18-42" transform="translate(10.8124,-91.9335)">
				<title>path2297</title>
				<g id="shadow18-43" transform="matrix(1,0,0,1,0.3456,1.9728)" class="st1">
					<path d="M21.43 837.09 L7.09 841.89 L0 839.63 L14.36 834.85 L21.43 837.09 Z" class="st5"/>
				</g>
				<path d="M21.43 837.09 L7.09 841.89 L0 839.63 L14.36 834.85 L21.43 837.09 Z" class="st8"/>
			</g>
			<g id="shape19-47" transform="translate(31.0504,-98.7096)">
				<title>path2299</title>
				<g id="shadow19-48" transform="matrix(1,0,0,1,0.3456,1.9728)" class="st1">
					<path d="M22.96 836.53 L7.06 841.89 L0 839.63 L15.92 834.3 L22.96 836.53 Z" class="st5"/>
				</g>
				<path d="M22.96 836.53 L7.06 841.89 L0 839.63 L15.92 834.3 L22.96 836.53 Z" class="st8"/>
			</g>
			<g id="shape20-52" transform="translate(53.2276,-106.173)">
				<title>path2301</title>
				<g id="shadow20-53" transform="matrix(1,0,0,1,0.3456,1.9728)" class="st1">
					<path d="M23.33 836.39 L7.02 841.89 L0 839.63 L16.34 834.14 L23.33 836.39 Z" class="st5"/>
				</g>
				<path d="M23.33 836.39 L7.02 841.89 L0 839.63 L16.34 834.14 L23.33 836.39 Z" class="st8"/>
			</g>
			<g id="shape21-57" transform="translate(75.777,-113.806)">
				<title>path2303</title>
				<g id="shadow21-58" transform="matrix(1,0,0,1,0.3456,1.9728)" class="st1">
					<path d="M22.5 836.69 L6.97 841.89 L0 839.63 L15.6 834.39 L22.5 836.69 Z" class="st5"/>
				</g>
				<path d="M22.5 836.69 L6.97 841.89 L0 839.63 L15.6 834.39 L22.5 836.69 Z" class="st8"/>
			</g>
			<g id="shape22-62" transform="translate(97.0861,-120.909)">
				<title>path2305</title>
				<g id="shadow22-63" transform="matrix(1,0,0,1,0.3456,1.9728)" class="st1">
					<path d="M20.5 837.32 L6.87 841.89 L0 839.63 L13.74 835.05 L20.5 837.32 Z" class="st5"/>
				</g>
				<path d="M20.5 837.32 L6.87 841.89 L0 839.63 L13.74 835.05 L20.5 837.32 Z" class="st8"/>
			</g>
			<g id="shape23-67" transform="translate(0,-104.214)">
				<title>polygon2307</title>
				<g id="shadow23-68" transform="matrix(1,0,0,1,0.3456,1.9728)" class="st1">
					<path d="M112.07 767.17 L224.14 804.53 L112.07 841.89 L0 804.53 L112.07 767.17 Z" class="st9"/>
				</g>
				<path d="M112.07 767.17 L224.14 804.53 L112.07 841.89 L0 804.53 L112.07 767.17 Z" class="st10"/>
			</g>
		</g>
	</g>
</svg>
